# File created by Blade
# Date/Time:  Tue Apr 07 20:17:56 2015
# Frame Rate: 120.000 fps
#------------------------------------------------------
:FULLY-SPECIFIED
:DEGREES
1137
root 5.659688 34.042816 -10.689734 19.946394 -24.563631 -46.744811
Spine 5.973570 8.056520 26.783673
Head 5.282719 8.921244 14.656354
LeftShoulder -24.142674 45.097330 15.794344
LeftArm 54.339549 -46.327496 -79.909062
LeftForeArm -0.775998 -0.000000 16.535918
LeftHand 13.425719 -0.000000 10.836400
LeftHandThumb1 -26.253704 0.000000 33.147579
RightShoulder -3.757269 5.637111 -20.673265
RightArm 11.576117 22.661075 46.483646
RightForeArm 26.098871 -0.000000 23.578605
RightHand 2.670344 0.000000 8.709621
RightHandThumb1 -24.326973 -0.000000 -32.862282
LeftUpLeg -7.948240 11.422474 36.783064
LeftLeg 22.508823 -0.000000 -0.000000
LeftFoot -19.480247 26.647542 -18.759237
LeftToeBase -10.166124 -0.000000 0.000000
RightUpLeg -85.749174 -46.922076 -16.501574
RightLeg 23.685798 -0.000000 -0.000000
RightFoot 45.621672 -12.171137 -4.066076
RightToeBase 35.085668 -0.000000 -0.000000
1138
root 5.671317 34.025850 -10.701046 19.758911 -24.699185 -46.592404
Spine 6.206108 8.068290 26.695010
Head 5.158974 8.929360 14.539652
LeftShoulder -24.169239 45.083850 15.763283
LeftArm 54.412936 -46.335015 -80.118709
LeftForeArm -0.797612 -0.000000 16.627556
LeftHand 13.426221 -0.000000 10.909080
LeftHandThumb1 -26.253704 0.000000 33.147579
RightShoulder -3.667505 5.983194 -20.852858
RightArm 12.037511 22.855492 46.367340
RightForeArm 25.555414 -0.000000 23.155241
RightHand 2.776762 -0.000000 8.508870
RightHandThumb1 -24.326973 -0.000000 -32.862282
LeftUpLeg -7.889112 11.644121 36.638389
LeftLeg 22.662020 -0.000000 -0.000000
LeftFoot -19.558233 26.330968 -18.817538
LeftToeBase -10.248634 -0.000000 0.000000
RightUpLeg -85.743045 -47.004928 -16.578779
RightLeg 22.557024 -0.000000 -0.000000
RightFoot 45.639690 -12.543823 -4.200486
RightToeBase 34.674142 -0.000000 -0.000000
1139
root 5.687418 34.010440 -10.706053 19.484871 -24.803347 -46.438756
Spine 6.521807 8.018904 26.656231
Head 5.009986 8.905881 14.390211
LeftShoulder -24.197393 45.078920 15.689734
LeftArm 54.510034 -46.348294 -80.357766
LeftForeArm -0.852331 -0.000000 16.749550
LeftHand 13.456245 -0.000000 10.982994
LeftHandThumb1 -26.253704 0.000000 33.147579
RightShoulder -3.571088 6.310992 -20.997428
RightArm 12.346621 22.737208 46.042575
RightForeArm 25.391888 -0.000000 22.937578
RightHand 2.766215 -0.000000 8.263964
RightHandThumb1 -24.326973 -0.000000 -32.862282
LeftUpLeg -7.754109 11.663181 36.497029
LeftLeg 22.788878 -0.000000 -0.000000
LeftFoot -19.846318 26.026615 -19.111183
LeftToeBase -9.485537 -0.000000 0.000000
RightUpLeg -85.642182 -47.121608 -16.572451
RightLeg 21.343852 -0.000000 -0.000000
RightFoot 45.532818 -12.797424 -4.421739
RightToeBase 34.553407 -0.000000 -0.000000
1140
root 5.707991 33.995034 -10.708950 19.185597 -24.902475 -46.248531
Spine 6.847585 7.959642 26.608735
Head 4.857681 8.876063 14.188578
LeftShoulder -24.223555 45.083997 15.591668
LeftArm 54.627622 -46.363662 -80.623589
LeftForeArm -0.853053 -0.000000 16.885107
LeftHand 13.405288 -0.000000 11.082435
LeftHandThumb1 -26.253704 0.000000 33.147579
RightShoulder -3.440719 6.632080 -21.159531
RightArm 12.547147 22.715544 45.754850
RightForeArm 25.159242 -0.000000 22.862441
RightHand 2.720241 -0.000000 7.998382
RightHandThumb1 -24.326973 -0.000000 -32.862282
LeftUpLeg -7.603733 11.583423 36.299331
LeftLeg 22.863446 -0.000000 -0.000000
LeftFoot -19.866120 26.004829 -19.114885
LeftToeBase -9.935030 -0.000000 0.000000
RightUpLeg -85.689504 -47.267041 -16.415152
RightLeg 20.237554 -0.000000 -0.000000
RightFoot 45.454562 -12.847008 -4.869720
RightToeBase 34.510548 -0.000000 -0.000000
1141
root 5.726069 33.982374 -10.712244 18.878976 -24.981772 -46.090416
Spine 7.190730 7.891097 26.594630
Head 4.698376 8.830906 13.992077
LeftShoulder -24.213551 45.057622 15.531373
LeftArm 54.680450 -46.364125 -80.811830
LeftForeArm -0.884459 -0.000000 16.972745
LeftHand 13.431466 -0.000000 11.272102
LeftHandThumb1 -26.253704 0.000000 33.147579
RightShoulder -3.277145 6.933249 -21.346605
RightArm 12.713948 22.761140 45.532878
RightForeArm 24.947555 -0.000000 22.758191
RightHand 2.730995 0.000000 7.736548
RightHandThumb1 -24.326973 -0.000000 -32.862282
LeftUpLeg -7.424524 11.409159 36.146139
LeftLeg 22.921328 -0.000000 -0.000000
LeftFoot -20.076013 25.955668 -19.368657
LeftToeBase -9.800750 -0.000000 0.000000
RightUpLeg -85.780435 -47.421021 -16.153542
RightLeg 19.235264 -0.000000 -0.000000
RightFoot 45.343274 -12.982630 -5.145741
RightToeBase 34.524411 -0.000000 -0.000000
1142
root 5.745176 33.969476 -10.716722 18.588904 -25.062424 -45.856488
Spine 7.458950 7.838059 26.491522
Head 4.574834 8.767090 13.800217
LeftShoulder -24.188670 45.082411 15.484354
LeftArm 54.760428 -46.347532 -80.984271
LeftForeArm -0.827450 0.000000 17.018179
LeftHand 13.447943 -0.000000 11.267827
LeftHandThumb1 -26.253704 0.000000 33.147579
RightShoulder -3.043874 7.219229 -21.526505
RightArm 12.758309 22.864737 45.308109
RightForeArm 24.708128 0.000000 22.703082
RightHand 2.558555 -0.000000 7.590353
RightHandThumb1 -24.326973 -0.000000 -32.862282
LeftUpLeg -7.310154 11.314167 35.925271
LeftLeg 23.000880 -0.000000 -0.000000
LeftFoot -20.241285 25.796136 -19.606806
LeftToeBase -9.640297 -0.000000 0.000000
RightUpLeg -86.054090 -47.601068 -15.809667
RightLeg 18.407904 -0.000000 -0.000000
RightFoot 45.279271 -13.109004 -5.381582
RightToeBase 34.418664 -0.000000 -0.000000
1143
root 5.760269 33.959667 -10.723451 18.316705 -25.152983 -45.665645
Spine 7.739511 7.833782 26.418439
Head 4.429874 8.676317 13.600512
LeftShoulder -24.106710 45.081742 15.486364
LeftArm 54.764766 -46.320137 -81.072626
LeftForeArm -0.880427 -0.000000 17.060513
LeftHand 13.428447 -0.000000 11.431641
LeftHandThumb1 -26.253704 0.000000 33.147579
RightShoulder -2.903019 7.409447 -21.669885
RightArm 13.007610 22.944888 45.122373
RightForeArm 24.522755 -0.000000 22.508432
RightHand 2.396836 -0.000000 7.526739
RightHandThumb1 -24.326973 -0.000000 -32.862282
LeftUpLeg -7.180323 11.274540 35.763820
LeftLeg 23.090045 -0.000000 -0.000000
LeftFoot -20.464182 25.486483 -19.962322
LeftToeBase -9.333724 -0.000000 0.000000
RightUpLeg -86.267708 -47.727840 -15.602867
RightLeg 17.774469 -0.000000 -0.000000
RightFoot 45.296990 -13.338530 -5.391612
RightToeBase 34.387407 -0.000000 -0.000000
1144
root 5.773617 33.951540 -10.729834 18.054416 -25.219225 -45.509823
Spine 8.020625 7.839140 26.393291
Head 4.252436 8.558042 13.366753
LeftShoulder -24.000549 45.065840 15.501543
LeftArm 54.745856 -46.274789 -81.103877
LeftForeArm -0.813645 -0.000000 17.055948
LeftHand 13.433181 -0.000000 11.288265
LeftHandThumb1 -26.253704 0.000000 33.147579
RightShoulder -2.761577 7.562302 -21.807897
RightArm 13.262026 22.935626 44.869916
RightForeArm 24.497157 -0.000000 22.215518
RightHand 2.147822 0.000000 7.557828
RightHandThumb1 -24.326973 -0.000000 -32.862282
LeftUpLeg -7.056384 11.266734 35.644797
LeftLeg 23.174104 -0.000000 -0.000000
LeftFoot -20.531551 25.238062 -20.135596
LeftToeBase -9.327558 -0.000000 0.000000
RightUpLeg -86.490702 -47.841556 -15.369802
RightLeg 17.310542 -0.000000 -0.000000
RightFoot 45.316247 -13.505377 -5.416068
RightToeBase 34.446369 -0.000000 -0.000000
1145
root 5.789476 33.941708 -10.735417 17.770699 -25.299957 -45.312975
Spine 8.315623 7.841225 26.327128
Head 4.048360 8.461022 13.137290
LeftShoulder -23.907990 45.043866 15.516871
LeftArm 54.710119 -46.208247 -81.086432
LeftForeArm -0.805109 -0.000000 17.001250
LeftHand 13.465892 -0.000000 11.208739
LeftHandThumb1 -26.253704 0.000000 33.147579
RightShoulder -2.606843 7.736025 -21.913447
RightArm 13.533168 22.835991 44.557893
RightForeArm 24.440841 0.000000 21.834357
RightHand 1.889252 -0.000000 7.631316
RightHandThumb1 -24.326973 -0.000000 -32.862282
LeftUpLeg -6.914700 11.245512 35.480767
LeftLeg 23.242193 -0.000000 -0.000000
LeftFoot -20.662276 24.960058 -20.370359
LeftToeBase -9.191598 -0.000000 0.000000
RightUpLeg -86.860540 -47.936667 -15.025441
RightLeg 17.000405 -0.000000 -0.000000
RightFoot 45.488108 -13.614814 -5.586196
RightToeBase 34.296838 -0.000000 -0.000000
1146
root 5.811598 33.929280 -10.742553 17.467228 -25.401835 -45.071343
Spine 8.632130 7.837742 26.220919
Head 3.820517 8.366242 12.891810
LeftShoulder -23.791785 44.991290 15.551425
LeftArm 54.600224 -46.157693 -81.037007
LeftForeArm -0.703819 -0.000000 16.976316
LeftHand 13.400908 -0.000000 11.153837
LeftHandThumb1 -26.253704 0.000000 33.147579
RightShoulder -2.400666 7.979724 -21.993155
RightArm 13.744077 22.603743 44.119739
RightForeArm 24.288994 -0.000000 21.335727
RightHand 1.752253 -0.000000 8.045624
RightHandThumb1 -24.326973 -0.000000 -32.862282
LeftUpLeg -6.781821 11.304640 35.270046
LeftLeg 23.336101 -0.000000 -0.000000
LeftFoot -20.786044 24.591880 -20.575558
LeftToeBase -9.042336 -0.000000 0.000000
RightUpLeg -87.223136 -47.981760 -14.771454
RightLeg 16.799589 -0.000000 -0.000000
RightFoot 45.802019 -13.622958 -5.910423
RightToeBase 34.300876 -0.000000 -0.000000
1147
root 5.836358 33.916392 -10.752043 17.171586 -25.520184 -44.842818
Spine 8.968229 7.848135 26.145478
Head 3.572330 8.273384 12.571840
LeftShoulder -23.681967 44.949026 15.540956
LeftArm 54.505148 -46.096432 -80.927479
LeftForeArm -0.614635 0.000000 16.854570
LeftHand 13.430007 -0.000000 11.018057
LeftHandThumb1 -26.253704 0.000000 33.147579
RightShoulder -2.167182 8.291199 -22.074170
RightArm 13.894579 22.250661 43.606444
RightForeArm 24.167971 -0.000000 20.829514
RightHand 1.405289 -0.000000 8.331468
RightHandThumb1 -24.326973 -0.000000 -32.862282
LeftUpLeg -6.647192 11.307625 35.056137
LeftLeg 23.443589 -0.000000 -0.000000
LeftFoot -20.952040 24.294405 -20.815399
LeftToeBase -8.814747 -0.000000 0.000000
RightUpLeg -87.674924 -47.999323 -14.456401
RightLeg 16.730833 -0.000000 -0.000000
RightFoot 46.197570 -13.695571 -6.079897
RightToeBase 34.105346 -0.000000 -0.000000
1148
root 5.848594 33.908005 -10.753390 16.803761 -25.557326 -44.688415
Spine 9.349748 7.774025 26.165545
Head 3.350023 8.165862 12.252130
LeftShoulder -23.556542 44.937613 15.530871
LeftArm 54.378078 -46.003593 -80.721225
LeftForeArm -0.692251 -0.000000 16.689430
LeftHand 13.475947 -0.000000 11.079158
LeftHandThumb1 -26.253704 0.000000 33.147579
RightShoulder -1.920505 8.557104 -22.151646
RightArm 14.066302 21.899288 43.107349
RightForeArm 24.002689 -0.000000 20.231594
RightHand 1.142301 -0.000000 8.621970
RightHandThumb1 -24.326973 -0.000000 -32.862282
LeftUpLeg -6.420918 11.162984 34.958593
LeftLeg 23.517493 -0.000000 -0.000000
LeftFoot -21.130875 24.030677 -21.061805
LeftToeBase -8.590426 -0.000000 0.000000
RightUpLeg -88.258431 -48.311908 -13.670232
RightLeg 17.039089 -0.000000 -0.000000
RightFoot 44.995518 -13.232768 -4.830493
RightToeBase 34.214125 -0.000000 -0.000000
1149
root 5.866343 33.895781 -10.764732 16.460126 -25.623780 -44.495388
Spine 9.734789 7.734091 26.136163
Head 3.083657 8.064325 11.903167
LeftShoulder -23.451859 44.933725 15.505330
LeftArm 54.297705 -45.914734 -80.517460
LeftForeArm -0.801493 -0.000000 16.490016
LeftHand 13.477180 0.000000 11.151175
LeftHandThumb1 -26.253704 0.000000 33.147579
RightShoulder -1.609086 8.884675 -22.230039
RightArm 14.129968 21.517665 42.552788
RightForeArm 24.246379 -0.000000 19.551324
RightHand 0.973574 -0.000000 8.892914
RightHandThumb1 -24.326973 -0.000000 -32.862282
LeftUpLeg -6.248886 10.935627 34.793660
LeftLeg 23.606269 -0.000000 -0.000000
LeftFoot -21.333455 23.882480 -21.367824
LeftToeBase -8.399079 -0.000000 0.000000
RightUpLeg -88.208110 -48.312077 -13.895262
RightLeg 17.165409 -0.000000 -0.000000
RightFoot 45.079471 -13.426875 -4.712714
RightToeBase 34.236365 -0.000000 -0.000000
